Patient4_TMGait_0pt2_03_left_25_EMG.mot
version=1
nRows=30
nColumns=33
inDegrees=no
endheader
time	1LAddLong	2LGlutMax	3LGlutMed	4LIliopsoas	5LSemiMemb	6LBicFemLong	7LRecFem	8LVastMed	9LVastLat	10LGasMed	11LTibAnt	12lTibPost	13LPeroneusLong	14LSol	15LExtDigLong	16LFlexDigLong	17RAddLong	18RGlutMax	19RGlutMed	20RIliopsoas	21RSemiMemb	22RBicFemLong	23RRecFem	24RVastMed	25RVastLat	26RGasMed	27RTibAnt	28RTibPost	29RPeroneusLong	30RSol	31RExtDigLong	32RFlexDigLong
52.91	0.02182	0.10132	0.11536	0.010071	0.063782	-0.008087	0.10544	-0.00946	-0.029907	-0.039673	-0.012054	0.010986	0.080872	-0.002899	-0.044098	0.015564	-0.046844	0.080261	0.22201	0.051117	0.26291	0.079041	-0.005798	-0.029449	0.005646	0.020447	0.04837	0.001984	-0.28946	-0.030212	-0.002899	-0.01236
52.911	0.014038	0.092926	0.13123	-0.000305	0.045624	-0.050354	0.046539	0.007477	-0.049286	-0.040741	-0.003052	0.005951	-0.018768	0.018768	-0.007019	-0.05661	-0.009766	0.072632	0.5188	-0.014648	0.078125	0.12482	-0.001526	-0.020905	0.014038	-0.016174	0.009003	-0.002594	-0.036469	-0.051575	-0.002441	-0.010376
52.912	0.052795	0.028992	0.024414	0.010223	0.063171	-0.016327	-0.020752	0.009766	-0.023041	-0.00885	0.015869	0.010223	-0.033569	-0.003967	0.0177	-0.034332	-0.019836	0.093689	0.51392	-0.012207	-0.072021	0.19424	-0.029907	0.001831	0.019684	-0.031586	-0.007935	-0.002594	0.31693	-0.14618	0.000763	-0.013275
52.913	0.049438	-0.021057	0.075531	0.011749	-0.016937	0.050659	-0.051727	0.013428	0.007935	0.029602	0.022736	0.014191	0.051422	-0.045776	0.036316	-0.012207	-0.00473	0.068054	0.24323	-0.050964	-0.082245	0.15533	-0.07019	0.010529	0.0177	-0.021973	-0.005188	-0.003052	0.44525	-0.19898	-0.002747	-0.010681
52.914	0.032196	0.005798	0.093079	0.010223	-0.040741	0.072937	0.001984	0.007629	0.032196	0.002899	0.019531	0.022125	-0.00412	-0.005035	0.040894	-0.020752	-0.013885	0.062103	-0.10895	-0.032043	-0.059509	0.097809	-0.058441	0.015869	0.018005	-0.02121	0.01297	-0.000458	0.31128	-0.35004	-0.005188	-0.015564
52.915	0.004425	0.020142	-0.062103	0.0177	-0.055237	0.015259	0.11032	0.010529	0.083923	-0.012054	-0.036774	0.010529	-0.004578	-0.0383	0.029907	-0.035858	0.025177	0.10529	-0.04364	-0.0914	-0.048828	0.075836	-0.085144	0.010376	0.013123	-0.026245	-0.013428	-0.007019	0.54474	-0.43579	0	-0.013885
52.916	-0.00061	0.042877	-0.1503	0.012512	-0.012207	0.021515	0.16678	-0.00946	0.13306	0.012207	-0.024719	0.00351	0.0177	-0.050507	0.024872	-0.032349	0.049744	0.12421	0.10117	-0.10239	-0.067139	0.065765	-0.088348	-0.018158	0.026093	-0.024872	-0.02594	-0.005035	0.27512	-0.30914	-0.001221	-0.012054
52.917	0.013885	0.069122	-0.04715	-0.010681	0.05722	0.081177	0.15671	-0.022888	0.15152	-0.013733	-0.026093	0.012207	0.034027	-0.12177	0.02594	-0.021515	0.080719	0.095215	0.058594	-0.077209	-0.12405	-0.018005	-0.037384	-0.062256	0.015411	-0.006561	-0.04303	0.001984	-0.25284	-0.15411	-0.003204	-0.006561
52.918	-0.003204	0.15152	-0.028076	0.011292	0.06424	0.13947	0.14038	-0.046082	0.023956	-0.022278	-0.014954	0.010376	0.066681	-0.13534	0.019073	-0.006256	0.11185	0.11932	0.029602	0.006409	-0.04425	0.02243	-0.013123	-0.062103	0.020294	-0.007629	-0.024109	0.003967	-0.54306	0.17242	0	-0.007324
52.919	-0.00412	0.17197	0.093994	-0.009003	0.055542	0.10757	0.14404	-0.032196	-0.025024	-0.011597	-0.000916	0.01297	0.02655	-0.11108	0.027008	-0.00885	0.052185	0.097198	0	0.054779	-0.003357	-0.013733	-0.001221	-0.055695	0.028687	0.00412	-0.026703	0.00412	0.080719	0.33859	-0.00351	-0.006409
52.92	-0.009766	0.22781	0.18219	-0.001526	0.035706	0.053101	0.12726	-0.023041	0.030823	0.002747	0.003052	0.006561	0.015717	-0.078583	0.027313	-0.014954	0.012512	0.028839	-0.015869	0.06424	0.063629	-0.00061	-0.053406	-0.12116	0.018768	0.008087	-0.017242	-0.013733	0.13092	0.11749	-0.002289	-0.004578
52.921	0.003204	0.28366	0.014191	0.016632	-0.015564	-0.069122	0.11139	-0.020752	0.02182	0.000763	0.012207	0.014954	0.007782	-0.040436	0.035706	-0.011139	0.014648	0.041046	-0.054779	0.054321	0.14938	-0.027771	-0.037994	-0.098572	0.019226	0.002899	-0.023651	-0.10422	0.082397	0.25971	-0.000458	-0.001373
52.922	0.014801	0.3154	-0.086517	0.003662	-0.036011	-0.067749	0.12207	-0.016479	0.035553	-0.003052	-0.003357	0.014496	0.020599	-0.044556	0.016022	-0.00824	0.01236	0.022125	-0.05722	0.006256	0.13046	0.029602	-0.058746	-0.094299	0.028992	0	-0.039368	-0.10834	0.14221	0.095062	-0.003052	0.007172
52.923	0.009918	0.27847	-0.066528	0.006104	-0.019226	-0.016632	0.14175	-0.009766	-0.005798	0.008392	-0.001373	0.015411	0.029449	-0.073242	-0.010223	-0.009766	0.015564	0.068512	0.007477	-0.080261	-0.3186	0.088959	-0.017242	-0.10757	0.021667	-0.029144	-0.018768	0.023193	0.19409	-0.080872	-0.002441	-0.005341
52.924	0.002899	0.19745	-0.055084	0.009766	-0.000305	-0.066223	0.11765	-0.00946	-0.034485	0.014191	-0.035095	0.012665	0.033417	-0.079803	-0.020142	0.002594	-0.043182	0.071411	-0.044098	-0.063324	-0.09201	-0.039368	-0.049438	-0.083618	0.013123	-0.01709	-0.008698	0.15518	0.31174	-0.20508	-0.00351	-0.007629
52.925	0.00473	0.11871	-0.14328	0.011597	0.01358	-0.080566	0.081787	-0.012665	-0.04364	0.005646	-0.03418	0.011444	0.006409	-0.063629	-0.011139	0.000763	-0.032349	0.031433	-0.10223	-0.01297	0.1503	-0.10925	-0.026398	-0.12543	0.019073	0.013275	-0.001831	0.13733	0.40787	0.15167	-0.00412	0.006104
52.926	0.005798	0.079651	-0.065918	0.007629	0.016479	-0.001526	0.077209	-0.011597	-0.040741	0.022888	-0.024567	0.017242	0.006714	-0.027161	0.049744	0.001526	-0.067139	-0.04837	-0.10239	0.13886	-0.09201	-0.15701	-0.034027	-0.087738	0.012665	-0.004883	0.00473	0.061951	-0.18448	0.47638	-0.004883	-0.007477
52.927	0.007324	0.09964	0.00885	0.02594	0.013733	-0.083923	0.016022	-0.015717	-0.012817	0.005035	-0.013428	0.015564	-0.009613	0.005798	0.11414	0.004425	-0.059967	-0.085754	-0.050507	0.18707	-0.20462	-0.078888	-0.037689	-0.091705	0.016022	-0.00885	0.009308	0.013123	-0.48019	0.35553	0.008392	-0.000458
52.928	0.014191	0.15076	0.12711	0.015564	0.036774	-0.27512	-0.007629	-0.01236	0.084839	-0.014648	0.018311	0.012665	0.000458	-0.000763	0.09552	-0.004425	-0.016785	-0.044098	0.07309	0.098114	-0.24231	-0.051727	-0.065308	-0.10239	0.031281	0.002289	0.023804	-0.01358	-0.15381	0.22095	-0.005035	-0.005951
52.929	0.010529	0.14343	0.26398	0.015564	0.025024	-0.16327	0.087738	-0.008545	0.12436	-0.00351	0.034943	0.028229	0	0.00412	0.056915	0.011139	0.013733	0.040283	-0.17914	-0.069733	-0.17029	-0.077667	-0.092163	-0.071259	0.041046	-0.004578	0.011902	-0.021515	0.031433	0.000153	-0.001678	-0.006104
52.93	0.018005	0.017853	0.002747	0.018311	-0.069275	-0.10559	0.15121	-0.025482	0.18662	-0.012512	0.063171	0.030823	0	0.030823	0.007935	0.007477	0.11719	-0.019226	-0.22217	-0.15503	0.19196	0.008392	-0.069733	-0.13046	0.04303	-0.00412	0.008698	-0.018921	-0.097046	-0.32913	-0.000916	-0.013885
52.931	0.021057	-0.046387	-0.084991	-0.013733	-0.083008	-0.085754	0.19287	-0.01297	0.17212	-0.028839	0.019836	0.011444	0.015564	0.031128	-0.012665	0.005188	0.17624	0.024261	-0.11002	-0.062256	0.38101	0.081329	-0.061188	-0.083466	0.030823	-0.005493	-0.001373	0.000916	-0.24307	-0.32318	-0.001831	-0.009155
52.932	0.021667	0.049744	0.021667	-0.023499	0.00885	-0.08667	0.17975	-0.011292	0.10193	-0.019226	0.047455	0.007782	-0.007172	0.00885	-0.044861	0.010071	0.11597	0.030823	-0.072784	0.066986	-0.1355	0.38208	-0.10941	-0.033417	0.06073	0.002136	0.002289	-0.001831	-0.28153	-0.20203	-0.002289	-0.007477
52.933	0.02121	0.10223	0.1149	-0.004425	0.045319	-0.050354	0.11459	-0.002441	0.023193	-0.009155	-0.006866	0.007477	-0.011292	-0.018463	-0.097961	-0.000153	0.02655	0.011749	-0.11734	0.24735	-0.55756	0.54962	-0.048523	-0.014038	0.045624	0.007935	-0.002899	-0.003967	-0.29358	-0.050659	0.004272	-0.011597
52.934	0.014191	0.081787	0.06073	-0.00946	0.008392	-0.01297	0.04303	0.003967	-0.10956	-0.011902	-0.022278	0.016937	-0.010376	-0.01297	-0.12085	0.001221	0.019836	0.039215	-0.29602	0.33005	-0.056763	0.27466	-0.002899	-0.001526	0.058899	0.001831	-0.000763	-0.01297	-0.2214	0.12085	-0.003662	-0.009766
52.935	0.015717	0.044708	-0.1059	0.006104	0.043182	-0.03418	-0.053711	0.003815	-0.21408	-0.015717	-0.004425	0.00885	0.014801	-0.034485	-0.061035	0.011139	-0.018158	-0.007782	-0.26871	0.16205	0.14038	-0.00351	-0.045929	0.10391	0.061798	0.009918	0.005341	-0.015411	-0.10498	0.081177	-0.001068	-0.013275
52.936	0.005341	0.051575	-0.14557	0.007019	0.058289	-0.001526	-0.00824	0.011749	-0.1738	-0.010986	-0.045776	0.008392	-0.027466	-0.056305	-0.074921	0.007324	0.000458	-0.085754	-0.21271	-0.001831	0.1944	0.003357	-0.023956	0.06424	0.040283	0.011597	-0.001221	-0.005646	0.082245	-0.038605	-0.000458	-0.010071
52.937	0.000305	0.12207	-0.14633	0.011444	0.02655	0.06134	-0.007172	0.007172	-0.045471	-0.02594	0.02655	0.013885	-0.029907	-0.034485	0.11276	0.014343	0.030975	-0.033569	-0.23926	-0.034637	0.23789	-0.001526	0.021515	0.048218	0.026703	0.008698	-0.018311	-0.00824	0.1683	-0.061493	-0.005951	0.000458
52.938	0.00412	0.1622	-0.2417	0.006866	-0.008087	0.095215	0.015259	0.010223	-0.020447	-0.049896	0.11734	-0.005493	0.016022	0.034637	0.12955	0.035553	0.005188	-0.02243	-0.23361	0.088959	0.1944	-0.02594	0.002747	-0.001221	0.033264	0.001221	-0.023804	-0.003204	0.072327	-0.11673	-0.002747	-0.008392
52.939	-0.001678	0.19257	-0.098114	0.006866	-0.019989	0.10468	0.020142	-0.00351	-0.016937	-0.00824	0.34119	0.017548	0.016174	0.026855	0.29968	0.040588	-0.007782	-0.10162	-0.16068	0.14618	0.059509	0.019836	-0.023651	0.024872	0.033722	-0.004425	-0.016632	-0.004578	0.038147	-0.19852	-0.002594	-0.002747
